G04 MADE WITH FRITZING*
G04 WWW.FRITZING.ORG*
G04 DOUBLE SIDED*
G04 HOLES PLATED*
G04 CONTOUR ON CENTER OF CONTOUR VECTOR*
%ASAXBY*%
%FSLAX23Y23*%
%MOIN*%
%OFA0B0*%
%SFA1.0B1.0*%
%ADD10C,0.080000*%
%ADD11C,0.039370*%
%ADD12C,0.075000*%
%ADD13C,0.062992*%
%ADD14C,0.078000*%
%ADD15R,0.080000X0.080000*%
%ADD16R,0.075000X0.075000*%
%ADD17R,0.062992X0.062992*%
%ADD18C,0.024000*%
%LNCOPPER0*%
G90*
G70*
G54D10*
X257Y850D03*
X257Y750D03*
X257Y650D03*
G54D11*
X1957Y1050D03*
G54D10*
X257Y1650D03*
X257Y1550D03*
X257Y1450D03*
X257Y2050D03*
X257Y1950D03*
X257Y1850D03*
X257Y1250D03*
X257Y1150D03*
X257Y1050D03*
G54D12*
X2157Y1350D03*
X2457Y1350D03*
X2157Y1250D03*
X2457Y1250D03*
X2157Y1150D03*
X2457Y1150D03*
X2157Y1050D03*
X2457Y1050D03*
X2057Y1550D03*
X2457Y1550D03*
X2657Y1350D03*
X3057Y1350D03*
G54D13*
X3055Y1150D03*
X2957Y1150D03*
G54D12*
X1057Y1050D03*
X801Y1050D03*
X1057Y1227D03*
X801Y1227D03*
G54D14*
X657Y2350D03*
X657Y2250D03*
G54D11*
X1157Y749D03*
X1857Y2550D03*
X1857Y2149D03*
G54D14*
X557Y750D03*
X557Y650D03*
X557Y1150D03*
X557Y1050D03*
X557Y1550D03*
X557Y1450D03*
X557Y1950D03*
X557Y1850D03*
X457Y350D03*
X657Y2650D03*
X657Y2550D03*
G54D12*
X1057Y350D03*
X657Y350D03*
X1457Y1050D03*
X1757Y1050D03*
X1457Y950D03*
X1757Y950D03*
X1457Y850D03*
X1757Y850D03*
X1457Y750D03*
X1757Y750D03*
X1457Y650D03*
X1757Y650D03*
X1457Y550D03*
X1757Y550D03*
X1457Y450D03*
X1757Y450D03*
X2157Y650D03*
X2457Y650D03*
X2157Y550D03*
X2457Y550D03*
X2157Y450D03*
X2457Y450D03*
X2157Y350D03*
X2457Y350D03*
X2057Y850D03*
X2457Y850D03*
X657Y250D03*
X1057Y250D03*
X2157Y2050D03*
X2457Y2050D03*
X2157Y1950D03*
X2457Y1950D03*
X2157Y1850D03*
X2457Y1850D03*
X2157Y1750D03*
X2457Y1750D03*
X2057Y2250D03*
X2457Y2250D03*
X2157Y2750D03*
X2457Y2750D03*
X2157Y2650D03*
X2457Y2650D03*
X2157Y2550D03*
X2457Y2550D03*
X2157Y2450D03*
X2457Y2450D03*
X2057Y2950D03*
X2457Y2950D03*
X1057Y450D03*
X657Y450D03*
G54D13*
X3055Y2550D03*
X2957Y2550D03*
X3055Y450D03*
X2957Y450D03*
X3055Y1850D03*
X2957Y1850D03*
G54D12*
X1057Y650D03*
X801Y650D03*
X1057Y827D03*
X801Y827D03*
X1057Y1450D03*
X801Y1450D03*
X1057Y1627D03*
X801Y1627D03*
X1057Y1850D03*
X801Y1850D03*
X1057Y2027D03*
X801Y2027D03*
X2657Y650D03*
X3057Y650D03*
X2657Y2050D03*
X3057Y2050D03*
X2657Y2750D03*
X3057Y2750D03*
G54D15*
X257Y850D03*
X257Y1650D03*
X257Y2050D03*
X257Y1250D03*
G54D16*
X2157Y1350D03*
G54D17*
X3055Y1150D03*
G54D16*
X1457Y1050D03*
X2157Y650D03*
X2157Y2050D03*
X2157Y2750D03*
G54D17*
X3055Y2550D03*
X3055Y450D03*
X3055Y1850D03*
G54D18*
X1028Y650D02*
X829Y650D01*
D02*
X288Y650D02*
X527Y650D01*
D02*
X527Y750D02*
X288Y750D01*
D02*
X1957Y450D02*
X2128Y450D01*
D02*
X1957Y1031D02*
X1957Y450D01*
D02*
X288Y1450D02*
X527Y1450D01*
D02*
X288Y1550D02*
X527Y1550D01*
D02*
X288Y1950D02*
X527Y1950D01*
D02*
X288Y1850D02*
X527Y1850D01*
D02*
X288Y1050D02*
X527Y1050D01*
D02*
X288Y1150D02*
X527Y1150D01*
D02*
X657Y278D02*
X657Y321D01*
D02*
X628Y350D02*
X487Y350D01*
D02*
X657Y378D02*
X657Y421D01*
D02*
X1357Y548D02*
X1357Y348D01*
D02*
X1357Y348D02*
X1085Y349D01*
D02*
X1428Y549D02*
X1357Y548D01*
D02*
X1257Y851D02*
X1428Y850D01*
D02*
X1257Y448D02*
X1257Y851D01*
D02*
X1085Y449D02*
X1257Y448D01*
D02*
X1857Y1049D02*
X1785Y1049D01*
D02*
X1857Y950D02*
X1857Y1049D01*
D02*
X1855Y249D02*
X1857Y950D01*
D02*
X1085Y250D02*
X1855Y249D01*
D02*
X1558Y2251D02*
X687Y2250D01*
D02*
X1558Y448D02*
X1558Y2251D01*
D02*
X1485Y449D02*
X1558Y448D01*
D02*
X1758Y2348D02*
X687Y2350D01*
D02*
X1757Y1078D02*
X1758Y2348D01*
D02*
X2057Y550D02*
X2057Y821D01*
D02*
X2128Y550D02*
X2057Y550D01*
D02*
X2356Y950D02*
X2356Y849D01*
D02*
X2356Y849D02*
X2428Y849D01*
D02*
X1857Y950D02*
X2356Y950D01*
D02*
X2358Y1548D02*
X2428Y1549D01*
D02*
X2356Y950D02*
X2358Y1548D01*
D02*
X2056Y1249D02*
X2057Y1521D01*
D02*
X2128Y1249D02*
X2056Y1249D01*
D02*
X2057Y1949D02*
X2128Y1949D01*
D02*
X2057Y2221D02*
X2057Y1949D01*
D02*
X2057Y2649D02*
X2128Y2649D01*
D02*
X2057Y2921D02*
X2057Y2649D01*
D02*
X2356Y2251D02*
X2428Y2250D01*
D02*
X2358Y1548D02*
X2356Y2251D01*
D02*
X2357Y2949D02*
X2428Y2949D01*
D02*
X2356Y2251D02*
X2357Y2949D01*
D02*
X1157Y768D02*
X1158Y1051D01*
D02*
X1158Y1051D02*
X1085Y1050D01*
D02*
X1358Y1450D02*
X1085Y1450D01*
D02*
X1358Y950D02*
X1358Y1450D01*
D02*
X1428Y950D02*
X1358Y950D01*
D02*
X1456Y1850D02*
X1085Y1850D01*
D02*
X1457Y1078D02*
X1456Y1850D01*
D02*
X1857Y2168D02*
X1857Y2531D01*
D02*
X2485Y2550D02*
X2930Y2550D01*
D02*
X2930Y1850D02*
X2485Y1850D01*
D02*
X2485Y1150D02*
X2930Y1150D01*
D02*
X2930Y450D02*
X2485Y450D01*
D02*
X3057Y621D02*
X3055Y476D01*
D02*
X3055Y1176D02*
X3057Y1321D01*
D02*
X3057Y2021D02*
X3055Y1876D01*
D02*
X3057Y2721D02*
X3055Y2576D01*
D02*
X587Y650D02*
X772Y650D01*
D02*
X585Y759D02*
X774Y818D01*
D02*
X585Y1159D02*
X774Y1218D01*
D02*
X587Y1050D02*
X772Y1050D01*
D02*
X587Y1450D02*
X772Y1450D01*
D02*
X585Y1559D02*
X774Y1618D01*
D02*
X587Y1850D02*
X772Y1850D01*
D02*
X585Y1959D02*
X774Y2018D01*
D02*
X1028Y1050D02*
X829Y1050D01*
D02*
X1028Y1450D02*
X829Y1450D01*
D02*
X1028Y1850D02*
X829Y1850D01*
G04 End of Copper0*
M02*