G04 MADE WITH FRITZING*
G04 WWW.FRITZING.ORG*
G04 DOUBLE SIDED*
G04 HOLES PLATED*
G04 CONTOUR ON CENTER OF CONTOUR VECTOR*
%ASAXBY*%
%FSLAX23Y23*%
%MOIN*%
%OFA0B0*%
%SFA1.0B1.0*%
%ADD10C,0.090000*%
%ADD11C,0.049370*%
%ADD12C,0.085000*%
%ADD13C,0.072992*%
%ADD14C,0.088000*%
%ADD15C,0.175354*%
%ADD16R,0.090000X0.090000*%
%ADD17R,0.085000X0.085000*%
%ADD18R,0.072992X0.072992*%
%LNMASK0*%
G90*
G70*
G54D10*
X257Y850D03*
X257Y750D03*
X257Y650D03*
G54D11*
X1957Y1050D03*
G54D10*
X257Y1650D03*
X257Y1550D03*
X257Y1450D03*
X257Y2050D03*
X257Y1950D03*
X257Y1850D03*
X257Y1250D03*
X257Y1150D03*
X257Y1050D03*
G54D12*
X2157Y1350D03*
X2457Y1350D03*
X2157Y1250D03*
X2457Y1250D03*
X2157Y1150D03*
X2457Y1150D03*
X2157Y1050D03*
X2457Y1050D03*
X2057Y1550D03*
X2457Y1550D03*
X2657Y1350D03*
X3057Y1350D03*
G54D13*
X3055Y1150D03*
X2957Y1150D03*
G54D12*
X1057Y1050D03*
X801Y1050D03*
X1057Y1227D03*
X801Y1227D03*
G54D14*
X657Y2350D03*
X657Y2250D03*
G54D11*
X1157Y749D03*
X1857Y2550D03*
X1857Y2149D03*
G54D15*
X2957Y2950D03*
X2957Y150D03*
X257Y150D03*
X257Y2950D03*
G54D14*
X557Y750D03*
X557Y650D03*
X557Y1150D03*
X557Y1050D03*
X557Y1550D03*
X557Y1450D03*
X557Y1950D03*
X557Y1850D03*
X457Y350D03*
X657Y2650D03*
X657Y2550D03*
G54D12*
X1057Y350D03*
X657Y350D03*
X1457Y1050D03*
X1757Y1050D03*
X1457Y950D03*
X1757Y950D03*
X1457Y850D03*
X1757Y850D03*
X1457Y750D03*
X1757Y750D03*
X1457Y650D03*
X1757Y650D03*
X1457Y550D03*
X1757Y550D03*
X1457Y450D03*
X1757Y450D03*
X2157Y650D03*
X2457Y650D03*
X2157Y550D03*
X2457Y550D03*
X2157Y450D03*
X2457Y450D03*
X2157Y350D03*
X2457Y350D03*
X2057Y850D03*
X2457Y850D03*
X657Y250D03*
X1057Y250D03*
X2157Y2050D03*
X2457Y2050D03*
X2157Y1950D03*
X2457Y1950D03*
X2157Y1850D03*
X2457Y1850D03*
X2157Y1750D03*
X2457Y1750D03*
X2057Y2250D03*
X2457Y2250D03*
X2157Y2750D03*
X2457Y2750D03*
X2157Y2650D03*
X2457Y2650D03*
X2157Y2550D03*
X2457Y2550D03*
X2157Y2450D03*
X2457Y2450D03*
X2057Y2950D03*
X2457Y2950D03*
X1057Y450D03*
X657Y450D03*
G54D13*
X3055Y2550D03*
X2957Y2550D03*
X3055Y450D03*
X2957Y450D03*
X3055Y1850D03*
X2957Y1850D03*
G54D12*
X1057Y650D03*
X801Y650D03*
X1057Y827D03*
X801Y827D03*
X1057Y1450D03*
X801Y1450D03*
X1057Y1627D03*
X801Y1627D03*
X1057Y1850D03*
X801Y1850D03*
X1057Y2027D03*
X801Y2027D03*
X2657Y650D03*
X3057Y650D03*
X2657Y2050D03*
X3057Y2050D03*
X2657Y2750D03*
X3057Y2750D03*
G54D16*
X257Y850D03*
X257Y1650D03*
X257Y2050D03*
X257Y1250D03*
G54D17*
X2157Y1350D03*
G54D18*
X3055Y1150D03*
G54D17*
X1457Y1050D03*
X2157Y650D03*
X2157Y2050D03*
X2157Y2750D03*
G54D18*
X3055Y2550D03*
X3055Y450D03*
X3055Y1850D03*
G04 End of Mask0*
M02*