; NON-PLATED HOLES START AT T1
; THROUGH (PLATED) HOLES START AT T100
M48
INCH
T1C0.165354
T100C0.015748
T101C0.038000
T102C0.035000
T103C0.040000
T104C0.031497
%
T1
X002567Y029495
X029567Y001495
X029567Y029495
X002567Y001495
T100
X018570Y025499
X018570Y021493
X011566Y007486
X019569Y010495
T101
X006567Y025495
X006567Y026495
X006567Y022495
X006567Y023495
X005567Y006495
X005567Y011495
X005567Y019495
X005567Y015495
X005567Y018495
X005567Y014495
X005567Y010495
X004567Y003495
X005567Y007495
T102
X024567Y024495
X024567Y019495
X030567Y020495
X017567Y010495
X021567Y025495
X010567Y002495
X014567Y006495
X024567Y029495
X020567Y022495
X024567Y025495
X021567Y004495
X010567Y018495
X014567Y004495
X024567Y005495
X021567Y019495
X021567Y027495
X014567Y007495
X021567Y013495
X017567Y009495
X010567Y006495
X014567Y005495
X008008Y014495
X021567Y018495
X020567Y008495
X008008Y018495
X021567Y010495
X021567Y003495
X024567Y003495
X024567Y008495
X024567Y013495
X010567Y020267
X008008Y012267
X017567Y006495
X006567Y003495
X021567Y011495
X008008Y020267
X026567Y020495
X010567Y012267
X021567Y012495
X017567Y004495
X021567Y006495
X021567Y024495
X010567Y004495
X021567Y026495
X014567Y010495
X008008Y016267
X017567Y007495
X026567Y027495
X017567Y005495
X024567Y011495
X020567Y029495
X024567Y010495
X024567Y018495
X020567Y015495
X024567Y026495
X008008Y010495
X017567Y008495
X006567Y002495
X010567Y014495
X024567Y006495
X010567Y010495
X024567Y015495
X024567Y012495
X024567Y020495
X024567Y027495
X026567Y013495
X024567Y004495
X008008Y006495
X014567Y009495
X024567Y022495
X024567Y017495
X014567Y008495
X030567Y006495
X030567Y027495
X010567Y008267
X010567Y016267
X030567Y013495
X010567Y003495
X026567Y006495
X008008Y008267
X006567Y004495
X021567Y017495
X021567Y020495
X021567Y005495
T103
X002567Y012495
X002567Y016495
X002567Y010495
X002567Y014495
X002567Y006495
X002567Y018495
X002567Y020495
X002567Y011495
X002567Y015495
X002567Y008495
X002567Y007495
X002567Y019495
T104
X030551Y018495
X029567Y025495
X029567Y004495
X029567Y018495
X029567Y011495
X030551Y025495
X030551Y011495
X030551Y004495
T00
M30
