G04 MADE WITH FRITZING*
G04 WWW.FRITZING.ORG*
G04 DOUBLE SIDED*
G04 HOLES PLATED*
G04 CONTOUR ON CENTER OF CONTOUR VECTOR*
%ASAXBY*%
%FSLAX23Y23*%
%MOIN*%
%OFA0B0*%
%SFA1.0B1.0*%
%ADD10C,0.080000*%
%ADD11C,0.039370*%
%ADD12C,0.075000*%
%ADD13C,0.062992*%
%ADD14C,0.078000*%
%ADD15R,0.080000X0.080000*%
%ADD16R,0.075000X0.075000*%
%ADD17R,0.062992X0.062992*%
%ADD18C,0.024000*%
%LNCOPPER1*%
G90*
G70*
G54D10*
X257Y850D03*
X257Y750D03*
X257Y650D03*
G54D11*
X1957Y1050D03*
G54D10*
X257Y1650D03*
X257Y1550D03*
X257Y1450D03*
X257Y2050D03*
X257Y1950D03*
X257Y1850D03*
X257Y1250D03*
X257Y1150D03*
X257Y1050D03*
G54D12*
X2157Y1350D03*
X2457Y1350D03*
X2157Y1250D03*
X2457Y1250D03*
X2157Y1150D03*
X2457Y1150D03*
X2157Y1050D03*
X2457Y1050D03*
X2057Y1550D03*
X2457Y1550D03*
X2657Y1350D03*
X3057Y1350D03*
G54D13*
X3055Y1150D03*
X2957Y1150D03*
G54D12*
X1057Y1050D03*
X801Y1050D03*
X1057Y1227D03*
X801Y1227D03*
G54D14*
X657Y2350D03*
X657Y2250D03*
G54D11*
X1157Y749D03*
X1857Y2550D03*
X1857Y2149D03*
G54D14*
X557Y750D03*
X557Y650D03*
X557Y1150D03*
X557Y1050D03*
X557Y1550D03*
X557Y1450D03*
X557Y1950D03*
X557Y1850D03*
X457Y350D03*
X657Y2650D03*
X657Y2550D03*
G54D12*
X1057Y350D03*
X657Y350D03*
X1457Y1050D03*
X1757Y1050D03*
X1457Y950D03*
X1757Y950D03*
X1457Y850D03*
X1757Y850D03*
X1457Y750D03*
X1757Y750D03*
X1457Y650D03*
X1757Y650D03*
X1457Y550D03*
X1757Y550D03*
X1457Y450D03*
X1757Y450D03*
X2157Y650D03*
X2457Y650D03*
X2157Y550D03*
X2457Y550D03*
X2157Y450D03*
X2457Y450D03*
X2157Y350D03*
X2457Y350D03*
X2057Y850D03*
X2457Y850D03*
X657Y250D03*
X1057Y250D03*
X2157Y2050D03*
X2457Y2050D03*
X2157Y1950D03*
X2457Y1950D03*
X2157Y1850D03*
X2457Y1850D03*
X2157Y1750D03*
X2457Y1750D03*
X2057Y2250D03*
X2457Y2250D03*
X2157Y2750D03*
X2457Y2750D03*
X2157Y2650D03*
X2457Y2650D03*
X2157Y2550D03*
X2457Y2550D03*
X2157Y2450D03*
X2457Y2450D03*
X2057Y2950D03*
X2457Y2950D03*
X1057Y450D03*
X657Y450D03*
G54D13*
X3055Y2550D03*
X2957Y2550D03*
X3055Y450D03*
X2957Y450D03*
X3055Y1850D03*
X2957Y1850D03*
G54D12*
X1057Y650D03*
X801Y650D03*
X1057Y827D03*
X801Y827D03*
X1057Y1450D03*
X801Y1450D03*
X1057Y1627D03*
X801Y1627D03*
X1057Y1850D03*
X801Y1850D03*
X1057Y2027D03*
X801Y2027D03*
X2657Y650D03*
X3057Y650D03*
X2657Y2050D03*
X3057Y2050D03*
X2657Y2750D03*
X3057Y2750D03*
G54D15*
X257Y850D03*
X257Y1650D03*
X257Y2050D03*
X257Y1250D03*
G54D16*
X2157Y1350D03*
G54D17*
X3055Y1150D03*
G54D16*
X1457Y1050D03*
X2157Y650D03*
X2157Y2050D03*
X2157Y2750D03*
G54D17*
X3055Y2550D03*
X3055Y450D03*
X3055Y1850D03*
G54D18*
X1257Y1150D02*
X1856Y1150D01*
D02*
X1257Y949D02*
X1257Y1150D01*
D02*
X658Y949D02*
X1257Y949D01*
D02*
X557Y851D02*
X658Y949D01*
D02*
X1856Y1150D02*
X1944Y1063D01*
D02*
X288Y850D02*
X557Y851D01*
D02*
X1955Y1849D02*
X1856Y1750D01*
D02*
X1856Y1750D02*
X658Y1750D01*
D02*
X658Y1750D02*
X555Y1650D01*
D02*
X2128Y1850D02*
X1955Y1849D01*
D02*
X555Y1650D02*
X288Y1650D01*
D02*
X1858Y1351D02*
X658Y1351D01*
D02*
X658Y2149D02*
X558Y2049D01*
D02*
X1838Y2149D02*
X658Y2149D01*
D02*
X558Y2049D02*
X288Y2050D01*
D02*
X2056Y1150D02*
X1858Y1351D01*
D02*
X658Y1351D02*
X556Y1249D01*
D02*
X2128Y1150D02*
X2056Y1150D01*
D02*
X556Y1249D02*
X288Y1249D01*
D02*
X1428Y650D02*
X1085Y650D01*
D02*
X2258Y1049D02*
X2258Y351D01*
D02*
X2557Y1351D02*
X2485Y1350D01*
D02*
X2258Y351D02*
X2428Y350D01*
D02*
X2485Y649D02*
X2557Y648D01*
D02*
X2557Y648D02*
X2558Y1448D01*
D02*
X2258Y2450D02*
X2428Y2450D01*
D02*
X2457Y2849D02*
X2457Y2778D01*
D02*
X1955Y2849D02*
X2457Y2849D01*
D02*
X687Y2650D02*
X1955Y2650D01*
D02*
X1955Y2650D02*
X1955Y2849D01*
D02*
X2557Y2750D02*
X2485Y2750D01*
D02*
X2557Y2051D02*
X2557Y2750D01*
D02*
X2557Y2051D02*
X2485Y2050D01*
D02*
X2557Y1351D02*
X2558Y2149D01*
D02*
X2258Y2350D02*
X2258Y2450D01*
D02*
X2258Y1748D02*
X2258Y2350D01*
D02*
X2258Y1748D02*
X2428Y1749D01*
D02*
X2258Y1049D02*
X2258Y1748D01*
D02*
X2428Y1050D02*
X2258Y1049D01*
D02*
X1428Y749D02*
X1176Y749D01*
D02*
X1876Y2550D02*
X2128Y2550D01*
D02*
X2057Y2350D02*
X2057Y2448D01*
D02*
X2057Y2448D02*
X1755Y2448D01*
D02*
X2557Y2750D02*
X2628Y2750D01*
D02*
X2557Y2051D02*
X2628Y2050D01*
D02*
X2557Y1351D02*
X2628Y1350D01*
D02*
X2557Y648D02*
X2628Y649D01*
D02*
X1756Y2448D02*
X1756Y2550D01*
D02*
X1756Y2550D02*
X687Y2550D01*
D02*
X2258Y2350D02*
X2057Y2350D01*
G04 End of Copper1*
M02*